<?xml version="1.0" encoding="UTF-8"?>
<svg id="Layer_1" data-name="Layer 1" xmlns="http://www.w3.org/2000/svg" viewBox="0 0 465 540">
  <path fill="#00FA61" d="M461.62,255.74h-185.33c-2.11,0-3.82-1.56-3.82-3.48v-34.93c0-1.92,1.71-3.48,3.82-3.48h86.76c3.24,0,5.01-3.45,2.93-5.71L235.66,66.49c-1.53-1.66-4.33-1.66-5.86,0L99.47,208.14c-2.08,2.26-.31,5.71,2.93,5.71h80.68c2.11,0,3.82-1.56,3.82-3.48v-38.53c0-.79.3-1.56.84-2.18l38.38-43.51c2.26-2.56,6.8-1.11,6.8,2.18v123.93c0,1.92-1.71,3.48-3.82,3.48H3.83c-3.24,0-5.01-3.45-2.93-5.71L229.8,1.25c1.53-1.66,4.33-1.66,5.86,0l228.9,248.79c2.08,2.26.31,5.71-2.93,5.71Z"/>
  <path fill="#C821C3" d="M461.62,283.33H3.83c-3.24,0-5.01,3.45-2.93,5.71l228.9,248.79c1.53,1.66,4.33,1.66,5.86,0l228.9-248.79c2.08-2.26.31-5.71-2.93-5.71ZM365.98,330.93l-130.33,141.65c-1.53,1.66-4.33,1.66-5.86,0l-130.32-141.65c-2.08-2.26-.31-5.71,2.93-5.71h260.65c3.24,0,5.01,3.45,2.93,5.71Z"/>
</svg>
